HIERARCHY
ROOT Hips
{
  OFFSET 0.000 76.343 0.000
  CHANNELS 6 Xposition Yposition Zposition Zrotation Xrotation Yrotation
  JOINT LeftUpLeg
  {
    OFFSET 5.345 0.643 3.094
    CHANNELS 6 Xposition Yposition Zposition Zrotation Xrotation Yrotation
    JOINT LeftLeg
    {
      OFFSET 0.000 -31.895 0.000
      CHANNELS 6 Xposition Yposition Zposition Zrotation Xrotation Yrotation
      JOINT LeftFoot
      {
        OFFSET 0.000 -45.091 0.000
        CHANNELS 6 Xposition Yposition Zposition Zrotation Xrotation Yrotation
        End Site
        {
          OFFSET 0.000 0.000 10.896
        }
      }
    }
  }
  JOINT RightUpLeg
  {
    OFFSET -5.345 0.643 3.094
    CHANNELS 6 Xposition Yposition Zposition Zrotation Xrotation Yrotation
    JOINT RightLeg
    {
      OFFSET 0.000 -31.895 0.000
      CHANNELS 6 Xposition Yposition Zposition Zrotation Xrotation Yrotation
      JOINT RightFoot
      {
        OFFSET 0.000 -45.091 0.000
        CHANNELS 6 Xposition Yposition Zposition Zrotation Xrotation Yrotation
        End Site
        {
          OFFSET 0.000 0.000 10.896
        }
      }
    }
  }
  JOINT Spine
  {
    OFFSET 0.000 34.300 0.000
    CHANNELS 6 Xposition Yposition Zposition Zrotation Xrotation Yrotation
    JOINT Spine1
    {
      OFFSET 0.000 25.000 0.000
      CHANNELS 6 Xposition Yposition Zposition Zrotation Xrotation Yrotation
      JOINT LeftShoulder
      {
        OFFSET 1.813 -0.140 0.145
        CHANNELS 6 Xposition Yposition Zposition Zrotation Xrotation Yrotation
        JOINT LeftArm
        {
          OFFSET 15.377 0.000 0.000
          CHANNELS 6 Xposition Yposition Zposition Zrotation Xrotation Yrotation
          JOINT LeftForeArm
          {
            OFFSET 22.771 0.000 0.000
            CHANNELS 6 Xposition Yposition Zposition Zrotation Xrotation Yrotation
            JOINT LeftHand
            {
              OFFSET 21.014 0.000 0.000
              CHANNELS 6 Xposition Yposition Zposition Zrotation Xrotation Yrotation
              JOINT LeftHandThumb1
              {
                OFFSET 4.877 -1.044 3.608
                CHANNELS 6 Xposition Yposition Zposition Zrotation Xrotation Yrotation
                JOINT LeftHandThumb2
                {
                  OFFSET 2.665 -0.000 0.000
                  CHANNELS 6 Xposition Yposition Zposition Zrotation Xrotation Yrotation
                  JOINT LeftHandThumb3
                  {
                    OFFSET 2.543 0.000 -0.000
                    CHANNELS 6 Xposition Yposition Zposition Zrotation Xrotation Yrotation
                    End Site
                    {
                      OFFSET 2.667 -0.000 0.000
                    }
                  }
                }
              }
              JOINT LeftHandIndex1
              {
                OFFSET 9.232 -0.301 2.144
                CHANNELS 6 Xposition Yposition Zposition Zrotation Xrotation Yrotation
                JOINT LeftHandIndex2
                {
                  OFFSET 4.225 -0.000 0.000
                  CHANNELS 6 Xposition Yposition Zposition Zrotation Xrotation Yrotation
                  JOINT LeftHandIndex3
                  {
                    OFFSET 2.654 -0.000 0.000
                    CHANNELS 6 Xposition Yposition Zposition Zrotation Xrotation Yrotation
                    End Site
                    {
                      OFFSET 1.958 0.000 0.000
                    }
                  }
                }
              }
              JOINT LeftHandMiddle1
              {
                OFFSET 8.920 -0.000 0.000
                CHANNELS 6 Xposition Yposition Zposition Zrotation Xrotation Yrotation
                JOINT LeftHandMiddle2
                {
                  OFFSET 4.863 0.000 -0.000
                  CHANNELS 6 Xposition Yposition Zposition Zrotation Xrotation Yrotation
                  JOINT LeftHandMiddle3
                  {
                    OFFSET 2.765 -0.000 0.000
                    CHANNELS 6 Xposition Yposition Zposition Zrotation Xrotation Yrotation
                    End Site
                    {
                      OFFSET 2.006 0.000 0.000
                    }
                  }
                }
              }
              JOINT LeftHandRing1
              {
                OFFSET 8.689 -0.126 -2.087
                CHANNELS 6 Xposition Yposition Zposition Zrotation Xrotation Yrotation
                JOINT LeftHandRing2
                {
                  OFFSET 4.538 0.000 0.000
                  CHANNELS 6 Xposition Yposition Zposition Zrotation Xrotation Yrotation
                  JOINT LeftHandRing3
                  {
                    OFFSET 2.305 0.000 0.000
                    CHANNELS 6 Xposition Yposition Zposition Zrotation Xrotation Yrotation
                    End Site
                    {
                      OFFSET 1.923 -0.000 0.000
                    }
                  }
                }
              }
              JOINT LeftHandPinky1
              {
                OFFSET 8.391 -0.817 -3.758
                CHANNELS 6 Xposition Yposition Zposition Zrotation Xrotation Yrotation
                JOINT LeftHandPinky2
                {
                  OFFSET 3.044 -0.000 0.000
                  CHANNELS 6 Xposition Yposition Zposition Zrotation Xrotation Yrotation
                  JOINT LeftHandPinky3
                  {
                    OFFSET 1.975 -0.000 0.000
                    CHANNELS 6 Xposition Yposition Zposition Zrotation Xrotation Yrotation
                    End Site
                    {
                      OFFSET 1.667 -0.000 -0.000
                    }
                  }
                }
              }
            }
          }
        }
      }
      JOINT RightShoulder
      {
        OFFSET -1.813 -0.140 0.145
        CHANNELS 6 Xposition Yposition Zposition Zrotation Xrotation Yrotation
        JOINT RightArm
        {
          OFFSET -15.377 0.000 0.000
          CHANNELS 6 Xposition Yposition Zposition Zrotation Xrotation Yrotation
          JOINT RightForeArm
          {
            OFFSET -22.771 0.000 0.000
            CHANNELS 6 Xposition Yposition Zposition Zrotation Xrotation Yrotation
            JOINT RightHand
            {
              OFFSET -21.014 0.000 0.000
              CHANNELS 6 Xposition Yposition Zposition Zrotation Xrotation Yrotation
              JOINT RightHandThumb1
              {
                OFFSET -4.877 -1.044 3.608
                CHANNELS 6 Xposition Yposition Zposition Zrotation Xrotation Yrotation
                JOINT RightHandThumb2
                {
                  OFFSET -2.665 -0.000 -0.000
                  CHANNELS 6 Xposition Yposition Zposition Zrotation Xrotation Yrotation
                  JOINT RightHandThumb3
                  {
                    OFFSET -2.543 0.000 0.000
                    CHANNELS 6 Xposition Yposition Zposition Zrotation Xrotation Yrotation
                    End Site
                    {
                      OFFSET -2.667 0.000 -0.000
                    }
                  }
                }
              }
              JOINT RightHandIndex1
              {
                OFFSET -9.232 -0.301 2.144
                CHANNELS 6 Xposition Yposition Zposition Zrotation Xrotation Yrotation
                JOINT RightHandIndex2
                {
                  OFFSET -4.225 0.000 0.000
                  CHANNELS 6 Xposition Yposition Zposition Zrotation Xrotation Yrotation
                  JOINT RightHandIndex3
                  {
                    OFFSET -2.654 -0.000 0.000
                    CHANNELS 6 Xposition Yposition Zposition Zrotation Xrotation Yrotation
                    End Site
                    {
                      OFFSET -1.958 0.000 -0.000
                    }
                  }
                }
              }
              JOINT RightHandMiddle1
              {
                OFFSET -8.920 0.000 -0.000
                CHANNELS 6 Xposition Yposition Zposition Zrotation Xrotation Yrotation
                JOINT RightHandMiddle2
                {
                  OFFSET -4.863 0.000 -0.000
                  CHANNELS 6 Xposition Yposition Zposition Zrotation Xrotation Yrotation
                  JOINT RightHandMiddle3
                  {
                    OFFSET -2.765 -0.000 0.000
                    CHANNELS 6 Xposition Yposition Zposition Zrotation Xrotation Yrotation
                    End Site
                    {
                      OFFSET -2.006 0.000 0.000
                    }
                  }
                }
              }
              JOINT RightHandRing1
              {
                OFFSET -8.689 -0.126 -2.087
                CHANNELS 6 Xposition Yposition Zposition Zrotation Xrotation Yrotation
                JOINT RightHandRing2
                {
                  OFFSET -4.538 -0.000 -0.000
                  CHANNELS 6 Xposition Yposition Zposition Zrotation Xrotation Yrotation
                  JOINT RightHandRing3
                  {
                    OFFSET -2.305 0.000 -0.000
                    CHANNELS 6 Xposition Yposition Zposition Zrotation Xrotation Yrotation
                    End Site
                    {
                      OFFSET -1.923 0.000 -0.000
                    }
                  }
                }
              }
              JOINT RightHandPinky1
              {
                OFFSET -8.391 -0.817 -3.758
                CHANNELS 6 Xposition Yposition Zposition Zrotation Xrotation Yrotation
                JOINT RightHandPinky2
                {
                  OFFSET -3.044 -0.000 0.000
                  CHANNELS 6 Xposition Yposition Zposition Zrotation Xrotation Yrotation
                  JOINT RightHandPinky3
                  {
                    OFFSET -1.975 0.000 0.000
                    CHANNELS 6 Xposition Yposition Zposition Zrotation Xrotation Yrotation
                    End Site
                    {
                      OFFSET -1.667 0.000 0.000
                    }
                  }
                }
              }
            }
          }
        }
      }
      JOINT Neck
      {
        OFFSET 0.000 0.678 0.000
        CHANNELS 6 Xposition Yposition Zposition Zrotation Xrotation Yrotation
        JOINT Head
        {
          OFFSET 0.000 6.143 0.000
          CHANNELS 6 Xposition Yposition Zposition Zrotation Xrotation Yrotation
          End Site
          {
            OFFSET 0.000 13.323 0.000
          }
        }
      }
    }
  }
}
MOTION
Frames:	4
Frame Time:	0.033333
46.65772 79.43995 -290.04990 -4.57988 1.68155 -31.27714 7.40867 1.06276 3.20577 4.53041 3.72849 -17.94076 -0.03484 -32.34976 -0.03675 -12.51187 0.94256 12.27457 -0.02447 -38.45912 0.04250 -2.02785 13.72789 9.49581 -4.87688 -0.04297 3.25537 -12.51106 -20.30499 -24.92687 0.09100 -32.40812 1.02233 8.08382 41.24437 18.31272 -0.20283 -38.85549 0.51959 -1.18503 3.37058 4.65016 -0.00530 29.27793 -0.01720 -0.64607 1.98897 -1.22653 0.00015 21.64861 -0.00555 -0.90744 2.35256 -1.15410 1.46258 -0.35803 0.59942 -12.76834 4.41011 -18.57504 14.32185 0.00003 0.03471 -43.99363 9.50989 -14.80834 21.20888 0.04081 0.12389 -19.75162 10.49998 -41.96190 25.49711 0.09902 0.50716 8.07458 24.66526 -21.96767 4.87698 -1.04401 3.60801 -0.00000 -0.00000 -0.00000 2.66501 -0.00002 0.00000 0.00000 0.00000 -0.00000 2.54302 0.00000 -0.00001 0.00000 0.00000 -0.00000 9.23200 -0.30099 2.14401 -0.00000 0.00000 -0.00000 4.22500 -0.00001 0.00001 -0.00000 0.00000 -0.00000 2.65399 -0.00001 0.00000 -0.00000 -0.00000 0.00000 8.91999 -0.00004 0.00001 -0.00000 0.00000 -0.00000 4.86300 0.00000 -0.00002 -0.00000 0.00000 -0.00000 2.76500 -0.00001 0.00001 -0.00000 0.00000 0.00001 8.68897 -0.12602 -2.08700 -0.00000 0.00000 -0.00000 4.53801 0.00001 0.00001 -0.00000 0.00000 -0.00000 2.30501 0.00001 0.00000 -0.00000 0.00000 0.00001 8.39099 -0.81700 -3.75799 -0.00000 0.00000 -0.00000 3.04400 -0.00001 0.00001 -0.00000 0.00000 -0.00000 1.97499 -0.00001 0.00001 -0.00000 -0.00000 0.00000 -1.49208 -0.71609 0.54059 23.80581 7.77555 17.01000 -15.67078 0.00677 0.05641 50.71606 4.77859 10.61005 -22.93035 0.04408 0.13936 2.70182 8.24040 40.17016 -20.68195 0.00710 0.24159 -1.57196 23.51062 41.31896 -4.87700 -1.04399 3.60801 0.00000 0.00000 -0.00000 -2.66502 -0.00001 -0.00001 0.00000 -0.00000 -0.00000 -2.54302 0.00001 0.00000 0.00000 -0.00000 -0.00000 -9.23202 -0.30100 2.14400 0.00000 -0.00000 0.00000 -4.22502 0.00001 0.00000 0.00000 -0.00000 0.00000 -2.65398 -0.00001 0.00001 0.00000 0.00000 0.00000 -8.91998 0.00000 -0.00001 0.00000 -0.00000 0.00000 -4.86302 0.00001 -0.00001 0.00000 -0.00000 0.00000 -2.76499 -0.00001 0.00000 0.00000 -0.00001 0.00001 -8.68900 -0.12599 -2.08700 0.00000 -0.00000 0.00000 -4.53799 -0.00001 -0.00001 0.00000 -0.00000 0.00000 -2.30498 0.00000 -0.00001 0.00000 -0.00001 0.00001 -8.39097 -0.81699 -3.75800 0.00000 -0.00000 0.00000 -3.04399 -0.00001 0.00000 0.00000 -0.00000 0.00000 -1.97504 0.00001 0.00001 0.00000 0.00000 0.00000 -0.00109 0.70937 0.00546 0.00002 0.00013 -0.00001 -0.00341 6.43250 0.06056 17.21937 1.91206 16.96898 
46.53499 79.48223 -289.58145 -4.23057 2.00112 -31.27633 7.39892 1.11168 3.20577 4.64489 3.27614 -17.60996 -0.03484 -32.24811 -0.03675 -13.21586 0.96898 12.12302 -0.02447 -38.62637 0.04250 -1.79530 11.78676 9.56991 -4.86144 -0.04758 3.25537 -13.98536 -24.16674 -25.35017 0.11654 -33.07999 0.99419 8.65000 37.85328 17.03892 -0.26689 -38.14065 0.88007 -1.77913 9.30511 5.07804 -0.00530 29.25242 -0.01720 -0.62201 1.97815 -1.27222 0.00015 21.62677 -0.00555 -0.90052 2.35251 -1.20755 1.46258 -0.35803 0.59942 -12.75051 4.37361 -18.42778 14.35146 0.00003 0.04070 -44.70623 9.24511 -16.00479 21.16197 0.04081 0.11107 -18.18773 9.68176 -42.74929 26.04213 0.12188 0.42453 6.92399 24.77633 -22.62268 4.87698 -1.04401 3.60801 -0.00000 -0.00000 -0.00000 2.66501 -0.00002 0.00000 0.00000 0.00000 -0.00000 2.54302 0.00000 -0.00001 0.00000 0.00000 -0.00000 9.23200 -0.30099 2.14401 -0.00000 0.00000 -0.00000 4.22500 -0.00001 0.00001 -0.00000 0.00000 -0.00000 2.65399 -0.00001 0.00000 -0.00000 -0.00000 0.00000 8.91999 -0.00004 0.00001 -0.00000 0.00000 -0.00000 4.86300 0.00000 -0.00002 -0.00000 0.00000 -0.00000 2.76500 -0.00001 0.00001 -0.00000 0.00000 0.00001 8.68897 -0.12602 -2.08700 -0.00000 0.00000 -0.00000 4.53801 0.00001 0.00001 -0.00000 0.00000 -0.00000 2.30501 0.00001 0.00000 -0.00000 0.00000 0.00001 8.39099 -0.81700 -3.75799 -0.00000 0.00000 -0.00000 3.04400 -0.00001 0.00001 -0.00000 0.00000 -0.00000 1.97499 -0.00001 0.00001 -0.00000 -0.00000 0.00000 -1.48433 -0.71609 0.54396 23.75953 7.76032 17.00731 -15.58286 0.00677 0.05641 50.27753 4.68562 11.85256 -22.87854 0.04408 0.14947 1.63152 8.17499 39.55606 -20.64395 0.00710 0.18529 -3.15162 22.13446 42.37720 -4.87700 -1.04399 3.60801 0.00000 0.00000 -0.00000 -2.66502 -0.00001 -0.00001 0.00000 -0.00000 -0.00000 -2.54302 0.00001 0.00000 0.00000 -0.00000 -0.00000 -9.23202 -0.30100 2.14400 0.00000 -0.00000 0.00000 -4.22502 0.00001 0.00000 0.00000 -0.00000 0.00000 -2.65398 -0.00001 0.00001 0.00000 0.00000 0.00000 -8.91998 0.00000 -0.00001 0.00000 -0.00000 0.00000 -4.86302 0.00001 -0.00001 0.00000 -0.00000 0.00000 -2.76499 -0.00001 0.00000 0.00000 -0.00001 0.00001 -8.68900 -0.12599 -2.08700 0.00000 -0.00000 0.00000 -4.53799 -0.00001 -0.00001 0.00000 -0.00000 0.00000 -2.30498 0.00000 -0.00001 0.00000 -0.00001 0.00001 -8.39097 -0.81699 -3.75800 0.00000 -0.00000 0.00000 -3.04399 -0.00001 0.00000 0.00000 -0.00000 0.00000 -1.97504 0.00001 0.00001 0.00000 0.00000 0.00000 -0.00109 0.70937 0.00546 0.00002 0.00013 -0.00001 -0.00341 6.42572 0.06056 17.12362 1.21296 16.88361 
46.39709 79.48887 -289.02176 -3.84420 2.20100 -31.22277 7.39230 1.15110 3.20577 4.64701 2.78849 -17.21256 -0.03484 -32.12645 -0.03675 -13.98132 1.37549 11.90401 -0.02677 -38.93208 0.03517 -1.57424 10.02281 9.74348 -4.85313 -0.05784 3.25537 -15.33220 -27.38079 -25.72063 0.13468 -33.63871 0.90271 9.06584 34.07149 16.05629 -0.30348 -37.79419 1.25891 -2.68182 15.16398 5.95716 -0.00356 29.21600 -0.01720 -0.61421 1.96583 -1.21217 0.00015 21.59706 -0.00555 -0.89267 2.35274 -1.15587 1.46258 -0.36098 0.59942 -12.75388 4.38087 -18.44594 14.36562 0.00003 0.04593 -45.31383 8.80085 -17.39081 21.12182 0.03886 0.10074 -16.38710 9.17819 -42.17436 26.02533 0.10908 0.32581 5.89149 24.96893 -23.65173 4.87698 -1.04401 3.60801 -0.00000 -0.00000 -0.00000 2.66501 -0.00002 0.00000 0.00000 0.00000 -0.00000 2.54302 0.00000 -0.00001 0.00000 0.00000 -0.00000 9.23200 -0.30099 2.14401 -0.00000 0.00000 -0.00000 4.22500 -0.00001 0.00001 -0.00000 0.00000 -0.00000 2.65399 -0.00001 0.00000 -0.00000 -0.00000 0.00000 8.91999 -0.00004 0.00001 -0.00000 0.00000 -0.00000 4.86300 0.00000 -0.00002 -0.00000 0.00000 -0.00000 2.76500 -0.00001 0.00001 -0.00000 0.00000 0.00001 8.68897 -0.12602 -2.08700 -0.00000 0.00000 -0.00000 4.53801 0.00001 0.00001 -0.00000 0.00000 -0.00000 2.30501 0.00001 0.00000 -0.00000 0.00000 0.00001 8.39099 -0.81700 -3.75799 -0.00000 0.00000 -0.00000 3.04400 -0.00001 0.00001 -0.00000 0.00000 -0.00000 1.97499 -0.00001 0.00001 -0.00000 -0.00000 0.00000 -1.47929 -0.71609 0.55048 23.57048 7.75063 17.13738 -15.51082 0.00677 0.05641 50.21490 4.27406 12.62008 -22.94527 0.04408 0.16003 0.68649 8.11003 38.85939 -20.62692 0.00746 0.13971 -5.79021 20.54742 45.25219 -4.87700 -1.04399 3.60801 0.00000 0.00000 -0.00000 -2.66502 -0.00001 -0.00001 0.00000 -0.00000 -0.00000 -2.54302 0.00001 0.00000 0.00000 -0.00000 -0.00000 -9.23202 -0.30100 2.14400 0.00000 -0.00000 0.00000 -4.22502 0.00001 0.00000 0.00000 -0.00000 0.00000 -2.65398 -0.00001 0.00001 0.00000 0.00000 0.00000 -8.91998 0.00000 -0.00001 0.00000 -0.00000 0.00000 -4.86302 0.00001 -0.00001 0.00000 -0.00000 0.00000 -2.76499 -0.00001 0.00000 0.00000 -0.00001 0.00001 -8.68900 -0.12599 -2.08700 0.00000 -0.00000 0.00000 -4.53799 -0.00001 -0.00001 0.00000 -0.00000 0.00000 -2.30498 0.00000 -0.00001 0.00000 -0.00001 0.00001 -8.39097 -0.81699 -3.75800 0.00000 -0.00000 0.00000 -3.04399 -0.00001 0.00000 0.00000 -0.00000 0.00000 -1.97504 0.00001 0.00001 0.00000 0.00000 0.00000 -0.00109 0.70937 0.00546 0.00002 0.00013 -0.00001 -0.00341 6.41532 0.06056 16.85618 0.84514 16.57034 
46.05788 79.39673 -288.34976 -3.58080 2.31074 -31.26613 7.36429 1.17303 3.20753 5.02439 2.45685 -16.36825 -0.03484 -31.87842 -0.03675 -15.11183 2.08821 11.30830 -0.03393 -39.42885 0.01474 -1.32362 8.33376 9.78699 -4.81928 -0.06563 3.25537 -16.05961 -29.78902 -25.71916 0.14837 -34.08854 0.78233 8.86233 30.07204 15.61346 -0.42032 -38.89555 1.87237 -3.72384 20.38594 6.99324 -0.00171 29.20135 -0.01720 -0.63128 1.91325 -1.14476 0.00015 21.58614 -0.00555 -0.90107 2.33549 -1.09440 1.46258 -0.36808 0.60076 -12.84211 4.37079 -18.31391 14.40775 0.00003 0.05679 -46.37509 8.51199 -17.57462 21.11863 0.02770 0.08433 -14.76602 8.58247 -42.96115 26.39291 0.13392 0.26640 4.62475 23.81971 -23.09064 4.87698 -1.04401 3.60801 -0.00000 -0.00000 -0.00000 2.66501 -0.00002 0.00000 0.00000 0.00000 -0.00000 2.54302 0.00000 -0.00001 0.00000 0.00000 -0.00000 9.23200 -0.30099 2.14401 -0.00000 0.00000 -0.00000 4.22500 -0.00001 0.00001 -0.00000 0.00000 -0.00000 2.65399 -0.00001 0.00000 -0.00000 -0.00000 0.00000 8.91999 -0.00004 0.00001 -0.00000 0.00000 -0.00000 4.86300 0.00000 -0.00002 -0.00000 0.00000 -0.00000 2.76500 -0.00001 0.00001 -0.00000 0.00000 0.00001 8.68897 -0.12602 -2.08700 -0.00000 0.00000 -0.00000 4.53801 0.00001 0.00001 -0.00000 0.00000 -0.00000 2.30501 0.00001 0.00000 -0.00000 0.00000 0.00001 8.39099 -0.81700 -3.75799 -0.00000 0.00000 -0.00000 3.04400 -0.00001 0.00001 -0.00000 0.00000 -0.00000 1.97499 -0.00001 0.00001 -0.00000 -0.00000 0.00000 -1.47340 -0.71725 0.55312 23.51386 7.73753 17.15977 -15.43133 0.00677 0.05641 50.39199 4.18780 12.82814 -22.90413 0.04408 0.15526 -0.89976 7.93486 41.69225 -21.19114 0.03186 0.21307 -3.63861 22.57343 41.62349 -4.87700 -1.04399 3.60801 0.00000 0.00000 -0.00000 -2.66502 -0.00001 -0.00001 0.00000 -0.00000 -0.00000 -2.54302 0.00001 0.00000 0.00000 -0.00000 -0.00000 -9.23202 -0.30100 2.14400 0.00000 -0.00000 0.00000 -4.22502 0.00001 0.00000 0.00000 -0.00000 0.00000 -2.65398 -0.00001 0.00001 0.00000 0.00000 0.00000 -8.91998 0.00000 -0.00001 0.00000 -0.00000 0.00000 -4.86302 0.00001 -0.00001 0.00000 -0.00000 0.00000 -2.76499 -0.00001 0.00000 0.00000 -0.00001 0.00001 -8.68900 -0.12599 -2.08700 0.00000 -0.00000 0.00000 -4.53799 -0.00001 -0.00001 0.00000 -0.00000 0.00000 -2.30498 0.00000 -0.00001 0.00000 -0.00001 0.00001 -8.39097 -0.81699 -3.75800 0.00000 -0.00000 0.00000 -3.04399 -0.00001 0.00000 0.00000 -0.00000 0.00000 -1.97504 0.00001 0.00001 0.00000 0.00000 0.00000 -0.00109 0.70937 0.00546 0.00002 0.00013 -0.00001 -0.00341 6.40979 0.06056 16.58517 0.82484 16.31540 
